<svg width="20" height="20" viewBox="0 0 20 20" fill="none" xmlns="http://www.w3.org/2000/svg">
<g clip-path="url(#clip0_3_841)">
<path d="M18.8 10.2083C18.8 9.55831 18.7417 8.93331 18.6333 8.33331H10V11.8833H14.9333C14.7167 13.025 14.0667 13.9916 13.0917 14.6416V16.95H16.0667C17.8 15.35 18.8 13 18.8 10.2083Z" fill="#4285F4"/>
<path d="M10 19.1667C12.475 19.1667 14.55 18.35 16.0667 16.95L13.0917 14.6417C12.275 15.1917 11.2333 15.525 10 15.525C7.61667 15.525 5.59167 13.9167 4.86667 11.75H1.81667V14.1167C3.325 17.1083 6.41667 19.1667 10 19.1667Z" fill="#34A853"/>
<path d="M4.86667 11.7417C4.68334 11.1917 4.575 10.6083 4.575 10C4.575 9.39166 4.68334 8.80833 4.86667 8.25833V5.89166H1.81667C1.19167 7.125 0.833336 8.51666 0.833336 10C0.833336 11.4833 1.19167 12.875 1.81667 14.1083L4.86667 11.7417Z" fill="#FBBC05"/>
<path d="M10 4.48331C11.35 4.48331 12.55 4.94998 13.5083 5.84998L16.1333 3.22498C14.5417 1.74165 12.475 0.833313 10 0.833313C6.41667 0.833313 3.325 2.89165 1.81667 5.89165L4.86667 8.25831C5.59167 6.09165 7.61666 4.48331 14.8667 4.48331H10Z" fill="#EA4335"/>
</g>
<defs>
<clipPath id="clip0_3_841">
<rect width="20" height="20" fill="white"/>
</clipPath>
</defs>
</svg>
