<svg width="20" height="20" viewBox="0 0 20 20" fill="none" xmlns="http://www.w3.org/2000/svg">
<g clip-path="url(#clip0_2_212)">
<path d="M5.83331 17.5C5.83331 17.9599 6.20672 18.3333 6.66665 18.3333C7.12658 18.3333 7.49998 17.9599 7.49998 17.5C7.49998 17.0401 7.12658 16.6667 6.66665 16.6667C6.20672 16.6667 5.83331 17.0401 5.83331 17.5V17.5" stroke="#111827" stroke-width="1.66667" stroke-linecap="round" stroke-linejoin="round"/>
<path d="M15 17.5C15 17.9599 15.3734 18.3333 15.8333 18.3333C16.2933 18.3333 16.6667 17.9599 16.6667 17.5C16.6667 17.0401 16.2933 16.6667 15.8333 16.6667C15.3734 16.6667 15 17.0401 15 17.5V17.5" stroke="#111827" stroke-width="1.66667" stroke-linecap="round" stroke-linejoin="round"/>
<path d="M1.70831 1.70833H3.37498L5.59165 12.0583C5.75938 12.8402 6.45882 13.3928 7.25831 13.375H15.4083C16.1897 13.3737 16.8653 12.8298 17.0333 12.0667L18.4083 5.875H4.26665" stroke="#111827" stroke-width="1.66667" stroke-linecap="round" stroke-linejoin="round"/>
</g>
<defs>
<clipPath id="clip0_2_212">
<rect width="20" height="20" fill="white"/>
</clipPath>
</defs>
</svg>
