<svg width="16" height="16" viewBox="0 0 16 16" fill="none" xmlns="http://www.w3.org/2000/svg">
<path d="M7.23922 2.3416C7.47922 1.6048 8.52162 1.6048 8.76082 2.3416L9.61682 4.9752C9.72409 5.30421 10.0308 5.52695 10.3768 5.5272H13.1464C13.9216 5.5272 14.2432 6.5192 13.6168 6.9752L11.3768 8.6024C11.0962 8.80596 10.9787 9.16707 11.0856 9.4968L11.9416 12.1304C12.1816 12.8672 11.3376 13.4808 10.7096 13.0248L8.46962 11.3976C8.18932 11.1941 7.80991 11.1941 7.52962 11.3976L5.28962 13.0248C4.66242 13.4808 3.81922 12.8672 4.05842 12.1304L4.91442 9.4968C5.02138 9.16707 4.90381 8.80596 4.62322 8.6024L2.38402 6.976C1.75762 6.52 2.08002 5.528 2.85442 5.528H5.62322C5.96957 5.52809 6.27665 5.30529 6.38402 4.976L7.24002 2.3424L7.23922 2.3416Z" fill="#FACC15"/>
</svg>
